<svg xmlns="http://www.w3.org/2000/svg" viewBox="0 0 800 600">
  <style>
    .eagle-path {
      fill: none;
      stroke: #1E3A8A;
      stroke-width: 2;
    }
  </style>

  <!-- Stylized Eagle -->
  <path class="eagle-path" d="M400 100 
    C380 120, 350 130, 320 120 
    C300 110, 280 90, 275 70 
    C270 50, 280 30, 300 20 
    C320 10, 350 15, 360 30 
    C370 45, 360 65, 345 75 
    C330 85, 310 80, 300 70" />

  <path class="eagle-path" d="M400 100 
    C420 120, 450 130, 480 120 
    C500 110, 520 90, 525 70 
    C530 50, 520 30, 500 20 
    C480 10, 450 15, 440 30 
    C430 45, 440 65, 455 75 
    C470 85, 490 80, 500 70" />

  <!-- Body -->
  <path class="eagle-path" d="M400 100 
    C400 120, 405 150, 410 180 
    C415 210, 425 240, 430 280" />

  <!-- Wings -->
  <path class="eagle-path" d="M410 180 
    C370 200, 330 210, 290 205 
    C250 200, 210 180, 170 150 
    C130 120, 100 80, 90 40" />

  <path class="eagle-path" d="M410 180 
    C450 200, 490 210, 530 205 
    C570 200, 610 180, 650 150 
    C690 120, 720 80, 730 40" />

  <!-- Tail feathers -->
  <path class="eagle-path" d="M430 280 
    C425 320, 420 360, 415 400 
    C410 440, 400 480, 380 520" />

  <path class="eagle-path" d="M430 280 
    C435 320, 440 360, 445 400 
    C450 440, 460 480, 480 520" />

  <path class="eagle-path" d="M430 280 
    C440 320, 450 360, 465 400 
    C480 440, 500 480, 530 520" />

  <path class="eagle-path" d="M430 280 
    C420 320, 410 360, 395 400 
    C380 440, 360 480, 330 520" />

  <!-- Additional wing details -->
  <path class="eagle-path" d="M290 205 
    C270 190, 250 170, 230 145 
    C210 120, 190 90, 175 55" />

  <path class="eagle-path" d="M230 145 
    C210 130, 190 110, 170 85 
    C150 60, 135 30, 125 0" />

  <path class="eagle-path" d="M530 205 
    C550 190, 570 170, 590 145 
    C610 120, 630 90, 645 55" />

  <path class="eagle-path" d="M590 145 
    C610 130, 630 110, 650 85 
    C670 60, 685 30, 695 0" />
  
  <!-- Head details -->
  <path class="eagle-path" d="M300 70 
    C290 65, 280 55, 275 45 
    C270 35, 272 25, 280 20" />

  <path class="eagle-path" d="M500 70 
    C510 65, 520 55, 525 45 
    C530 35, 528 25, 520 20" />

  <!-- Beak -->
  <path class="eagle-path" d="M400 100 
    C395 95, 390 90, 395 85 
    C400 80, 410 80, 415 85 
    C420 90, 415 95, 410 100" />
</svg>
